<svg width="79" height="73" viewBox="0 0 79 73" fill="none" xmlns="http://www.w3.org/2000/svg">
<g clip-path="url(#clip0_1_432)">
<path d="M18.4609 41.2356L37.6147 60.2398" stroke="white" stroke-width="4.8"/>
<path d="M11.5767 58.1448L20.1061 66.6742" stroke="white" stroke-width="4.8"/>
<path d="M75.9964 17.9668C75.5745 15.797 63.4267 2.7784 61.2569 3.00287C59.0871 3.22734 22.4405 37.7191 18.3105 41.3105C13.1479 45.7997 14.9436 50.9622 14.9436 53.4313C14.9436 56.9478 12.9235 58.918 11.8012 60.165L3.25275 68.4524C2.79669 68.8946 3.10851 69.6671 3.74372 69.6671H15.8109C16.0196 69.6671 16.2221 69.5696 16.3582 69.4114C22.9666 61.7273 27.1804 64.7242 30.955 64.2801C33.9959 63.9223 36.8933 61.357 37.9756 60.1046C37.9842 60.0947 37.9806 60.0979 37.9897 60.0884C38.2848 59.7816 76.4166 20.1282 75.9964 17.9668Z" stroke="white" stroke-width="4.8"/>
</g>
<defs>
<clipPath id="clip0_1_432">
<rect width="79" height="73" fill="white"/>
</clipPath>
</defs>
</svg>
