<svg width="449" height="448" viewBox="0 0 449 448" fill="none" xmlns="http://www.w3.org/2000/svg">
<path d="M429 20L196 253M22.12 167.94L422.12 16.55C423.563 15.9981 425.135 15.8758 426.646 16.1979C428.157 16.5201 429.542 17.2728 430.635 18.3653C431.727 19.4577 432.48 20.8431 432.802 22.3541C433.124 23.8651 433.002 25.437 432.45 26.88L281.06 426.88C280.458 428.399 279.405 429.697 278.043 430.6C276.681 431.503 275.075 431.967 273.442 431.93C271.808 431.893 270.225 431.357 268.905 430.393C267.586 429.429 266.593 428.085 266.06 426.54L198.66 260.45C197.874 258.096 196.552 255.958 194.797 254.203C193.042 252.448 190.904 251.126 188.55 250.34L22.46 183C20.8953 182.479 19.5298 181.488 18.5502 180.162C17.5706 178.835 17.0249 177.238 16.9877 175.59C16.9505 173.941 17.4236 172.321 18.3423 170.952C19.261 169.583 20.5804 168.531 22.12 167.94Z" stroke="white" stroke-width="32" stroke-linecap="round" stroke-linejoin="round"/>
</svg>
