<svg width="79" height="79" viewBox="0 0 79 79" fill="none" xmlns="http://www.w3.org/2000/svg">
<g clip-path="url(#clip0_1_405)">
<mask id="mask0_1_405" style="mask-type:luminance" maskUnits="userSpaceOnUse" x="0" y="0" width="79" height="79">
<path d="M79 0H0V79H79V0Z" fill="white"/>
</mask>
<g mask="url(#mask0_1_405)">
<mask id="mask1_1_405" style="mask-type:luminance" maskUnits="userSpaceOnUse" x="0" y="0" width="79" height="79">
<path d="M79 0H0V79H79V0Z" fill="white"/>
</mask>
<g mask="url(#mask1_1_405)">
<path d="M11.5723 0H2.31445C1.03621 0 0 1.03621 0 2.31445V11.5723C0 12.8505 1.03621 13.8867 2.31445 13.8867H11.5723C12.8505 13.8867 13.8867 12.8505 13.8867 11.5723V2.31445C13.8867 1.03621 12.8505 0 11.5723 0Z" fill="white"/>
<path d="M54.3125 23.1445H24.6875C23.8353 23.1445 23.1445 23.8353 23.1445 24.6875V26.3848C23.1445 27.2369 23.8353 27.9277 24.6875 27.9277H54.3125C55.1646 27.9277 55.8554 27.2369 55.8554 26.3848V24.6875C55.8554 23.8353 55.1646 23.1445 54.3125 23.1445Z" fill="white"/>
<path d="M26.3848 23.1445H24.6875C23.8353 23.1445 23.1445 23.8353 23.1445 24.6875V28.6992C23.1445 29.5514 23.8353 30.2422 24.6875 30.2422H26.3848C27.2369 30.2422 27.9277 29.5514 27.9277 28.6992V24.6875C27.9277 23.8353 27.2369 23.1445 26.3848 23.1445Z" fill="white"/>
<path d="M54.3125 23.1445H52.6152C51.7631 23.1445 51.0723 23.8353 51.0723 24.6875V28.6992C51.0723 29.5514 51.7631 30.2422 52.6152 30.2422H54.3125C55.1647 30.2422 55.8555 29.5514 55.8555 28.6992V24.6875C55.8555 23.8353 55.1647 23.1445 54.3125 23.1445Z" fill="white"/>
<path d="M40.2715 24.3789H38.5742C37.7221 24.3789 37.0312 25.0697 37.0312 25.9219V54.3125C37.0312 55.1647 37.7221 55.8555 38.5742 55.8555H40.2715C41.1236 55.8555 41.8144 55.1647 41.8144 54.3125V25.9219C41.8144 25.0697 41.1236 24.3789 40.2715 24.3789Z" fill="white"/>
<path d="M47.3691 51.0723H31.6309C30.7787 51.0723 30.0879 51.7631 30.0879 52.6152V54.3125C30.0879 55.1647 30.7787 55.8555 31.6309 55.8555H47.3691C48.2213 55.8555 48.9121 55.1647 48.9121 54.3125V52.6152C48.9121 51.7631 48.2213 51.0723 47.3691 51.0723Z" fill="white"/>
<path d="M76.6855 0H67.4277C66.1495 0 65.1133 1.03621 65.1133 2.31445V11.5723C65.1133 12.8505 66.1495 13.8867 67.4277 13.8867H76.6855C77.9638 13.8867 79 12.8505 79 11.5723V2.31445C79 1.03621 77.9638 0 76.6855 0Z" fill="white"/>
<path d="M76.6855 65.1133H67.4277C66.1495 65.1133 65.1133 66.1495 65.1133 67.4277V76.6855C65.1133 77.9638 66.1495 79 67.4277 79H76.6855C77.9638 79 79 77.9638 79 76.6855V67.4277C79 66.1495 77.9638 65.1133 76.6855 65.1133Z" fill="white"/>
<path d="M11.5723 65.1133H2.31445C1.03621 65.1133 0 66.1495 0 67.4277V76.6855C0 77.9638 1.03621 79 2.31445 79H11.5723C12.8505 79 13.8867 77.9638 13.8867 76.6855V67.4277C13.8867 66.1495 12.8505 65.1133 11.5723 65.1133Z" fill="white"/>
<mask id="mask2_1_405" style="mask-type:luminance" maskUnits="userSpaceOnUse" x="5" y="4" width="69" height="71">
<path d="M71.281 6H7.71903C7.32192 6 7 6.33182 7 6.74115V72.2589C7 72.6682 7.32192 73 7.71903 73H71.281C71.6781 73 72 72.6682 72 72.2589V6.74115C72 6.33182 71.6781 6 71.281 6Z" stroke="white" stroke-width="4"/>
</mask>
<g mask="url(#mask2_1_405)">
<path d="M71.281 6H7.71903C7.32192 6 7 6.33182 7 6.74115V72.2589C7 72.6682 7.32192 73 7.71903 73H71.281C71.6781 73 72 72.6682 72 72.2589V6.74115C72 6.33182 71.6781 6 71.281 6Z" stroke="white" stroke-width="4"/>
</g>
</g>
</g>
</g>
<defs>
<clipPath id="clip0_1_405">
<rect width="79" height="79" fill="white"/>
</clipPath>
</defs>
</svg>
