<svg width="144" height="130" viewBox="0 0 144 130" fill="none" xmlns="http://www.w3.org/2000/svg">
<rect x="24" y="6.31866" width="17.8132" height="70.1488" rx="8.90658" transform="rotate(-20 24 6.31866)" fill="#247CFF" fill-opacity="0.7"/>
<rect x="66.5076" width="17.8132" height="70.1488" rx="8.90658" transform="rotate(20 66.5076 0)" fill="#FF5E5E" fill-opacity="0.7"/>
<rect x="60.7537" y="6.31866" width="17.8132" height="70.1488" rx="8.90658" transform="rotate(-20 60.7537 6.31866)" fill="#FF5E5E" fill-opacity="0.7"/>
<rect x="103.261" width="17.8132" height="70.1488" rx="8.90658" transform="rotate(20 103.261 0)" fill="#FF5E5E" fill-opacity="0.7"/>
<path d="M9.152 121.16C8.72533 121.16 8.34133 121.043 8 120.808C7.68 120.552 7.43467 120.189 7.264 119.72L0.992 100.456C0.928 100.221 0.896 100.04 0.896 99.912C0.874667 99.5067 0.992 99.176 1.248 98.92C1.52533 98.6427 1.87733 98.504 2.304 98.504C2.64533 98.504 2.944 98.6107 3.2 98.824C3.456 99.0373 3.63733 99.3147 3.744 99.656L9.12 117.32L14.528 99.72C14.6347 99.3573 14.8373 99.0693 15.136 98.856C15.456 98.6213 15.808 98.504 16.192 98.504C16.576 98.504 16.9173 98.6213 17.216 98.856C17.536 99.0693 17.7493 99.3573 17.856 99.72L23.264 117.32L28.64 99.656C28.7467 99.3147 28.928 99.0373 29.184 98.824C29.44 98.6107 29.7387 98.504 30.08 98.504C30.5067 98.504 30.848 98.6427 31.104 98.92C31.3813 99.176 31.5093 99.5067 31.488 99.912C31.488 100.04 31.456 100.221 31.392 100.456L25.12 119.72C24.9493 120.189 24.6933 120.552 24.352 120.808C24.032 121.043 23.6587 121.16 23.232 121.16C22.8053 121.16 22.4107 121.032 22.048 120.776C21.7067 120.499 21.472 120.147 21.344 119.72L16.192 103.4L11.04 119.72C10.912 120.147 10.6667 120.499 10.304 120.776C9.96267 121.032 9.57867 121.16 9.152 121.16ZM40.7303 121.32C38.1276 121.32 36.0903 120.584 34.6183 119.112C33.1676 117.619 32.4423 115.528 32.4423 112.84C32.4423 111.325 32.7196 109.928 33.2743 108.648C33.8289 107.368 34.6823 106.333 35.8343 105.544C36.9863 104.755 38.4049 104.36 40.0903 104.36C41.6689 104.36 43.0343 104.733 44.1863 105.48C45.3383 106.205 46.2129 107.187 46.8103 108.424C47.4076 109.64 47.7063 110.973 47.7063 112.424C47.7063 112.829 47.5676 113.171 47.2903 113.448C47.0343 113.725 46.6823 113.864 46.2343 113.864H35.3863C35.5569 115.357 36.1116 116.52 37.0503 117.352C37.9889 118.184 39.3009 118.6 40.9863 118.6C41.8823 118.6 42.6609 118.515 43.3223 118.344C44.0049 118.173 44.6663 117.928 45.3063 117.608C45.4769 117.523 45.6689 117.48 45.8823 117.48C46.2236 117.48 46.5223 117.597 46.7783 117.832C47.0343 118.067 47.1623 118.365 47.1623 118.728C47.1623 119.197 46.8849 119.592 46.3303 119.912C45.4983 120.381 44.6769 120.733 43.8663 120.968C43.0556 121.203 42.0103 121.32 40.7303 121.32ZM44.8263 111.496C44.7623 110.451 44.4849 109.576 43.9943 108.872C43.5249 108.168 42.9383 107.656 42.2343 107.336C41.5303 106.995 40.8156 106.824 40.0903 106.824C39.3649 106.824 38.6503 106.995 37.9463 107.336C37.2423 107.656 36.6556 108.168 36.1863 108.872C35.7169 109.576 35.4503 110.451 35.3863 111.496H44.8263ZM59.9433 121.32C57.8526 121.32 56.0286 120.509 54.4713 118.888V119.72C54.4713 120.125 54.3219 120.467 54.0233 120.744C53.7459 121.021 53.4046 121.16 52.9993 121.16C52.5939 121.16 52.2526 121.021 51.9753 120.744C51.6979 120.467 51.5593 120.125 51.5593 119.72V98.952C51.5593 98.5467 51.6979 98.2053 51.9753 97.928C52.2526 97.6293 52.5939 97.48 52.9993 97.48C53.4259 97.48 53.7779 97.6187 54.0553 97.896C54.3326 98.1733 54.4713 98.5253 54.4713 98.952V106.792C56.0286 105.171 57.8526 104.36 59.9433 104.36C61.2659 104.36 62.5139 104.701 63.6873 105.384C64.8819 106.045 65.8419 107.027 66.5673 108.328C67.3139 109.608 67.6873 111.112 67.6873 112.84C67.6873 114.568 67.3139 116.083 66.5673 117.384C65.8419 118.664 64.8819 119.645 63.6873 120.328C62.5139 120.989 61.2659 121.32 59.9433 121.32ZM59.5273 118.6C61.1059 118.6 62.3753 118.099 63.3353 117.096C64.2953 116.093 64.7753 114.675 64.7753 112.84C64.7753 111.005 64.2953 109.587 63.3353 108.584C62.3753 107.581 61.1059 107.08 59.5273 107.08C58.5459 107.08 57.6179 107.304 56.7433 107.752C55.8899 108.179 55.1326 108.755 54.4713 109.48V116.2C55.1326 116.925 55.8899 117.512 56.7433 117.96C57.6179 118.387 58.5459 118.6 59.5273 118.6ZM73.3253 121.16C72.9199 121.16 72.5786 121.021 72.3013 120.744C72.0239 120.467 71.8853 120.125 71.8853 119.72V100.616C71.8853 100.04 72.0879 99.5493 72.4933 99.144C72.8986 98.7173 73.3893 98.504 73.9653 98.504H74.3813C75.0639 98.504 75.6506 98.824 76.1413 99.464L88.4613 117.256V99.976C88.4613 99.5707 88.5999 99.2293 88.8773 98.952C89.1546 98.6533 89.4959 98.504 89.9013 98.504C90.3066 98.504 90.6479 98.6533 90.9253 98.952C91.2239 99.2293 91.3733 99.5707 91.3733 99.976V119.08C91.3733 119.656 91.1599 120.147 90.7333 120.552C90.3279 120.957 89.8373 121.16 89.2613 121.16H88.8773C88.5359 121.16 88.2159 121.085 87.9173 120.936C87.6186 120.765 87.3733 120.552 87.1813 120.296L74.7973 102.408V119.72C74.7973 120.125 74.6479 120.467 74.3493 120.744C74.0719 121.021 73.7306 121.16 73.3253 121.16ZM103.759 121.32C102.117 121.32 100.677 120.968 99.4393 120.264C98.2019 119.56 97.2419 118.568 96.5593 117.288C95.8979 115.987 95.5673 114.504 95.5673 112.84C95.5673 111.176 95.8979 109.704 96.5593 108.424C97.2419 107.123 98.2019 106.12 99.4393 105.416C100.677 104.712 102.117 104.36 103.759 104.36C105.381 104.36 106.81 104.712 108.047 105.416C109.285 106.12 110.245 107.123 110.927 108.424C111.61 109.704 111.951 111.176 111.951 112.84C111.951 114.504 111.61 115.987 110.927 117.288C110.245 118.568 109.285 119.56 108.047 120.264C106.81 120.968 105.381 121.32 103.759 121.32ZM103.759 118.664C104.634 118.664 105.466 118.461 106.255 118.056C107.066 117.651 107.727 117.011 108.239 116.136C108.773 115.261 109.039 114.152 109.039 112.808C109.039 111.485 108.773 110.387 108.239 109.512C107.727 108.637 107.066 108.008 106.255 107.624C105.466 107.219 104.634 107.016 103.759 107.016C102.863 107.016 102.01 107.219 101.199 107.624C100.41 108.008 99.7593 108.637 99.2473 109.512C98.7353 110.387 98.4793 111.485 98.4793 112.808C98.4793 114.152 98.7353 115.261 99.2473 116.136C99.7593 117.011 100.41 117.651 101.199 118.056C102.01 118.461 102.863 118.664 103.759 118.664ZM121.535 121.32C118.42 121.32 116.863 119.912 116.863 117.096V107.176H114.591C114.42 107.176 114.271 107.123 114.143 107.016C114.036 106.888 113.983 106.739 113.983 106.568C113.983 106.355 114.079 106.173 114.271 106.024L118.623 101.768C118.815 101.576 118.996 101.48 119.167 101.48C119.338 101.48 119.476 101.544 119.583 101.672C119.711 101.8 119.775 101.949 119.775 102.12V104.68H123.391C123.754 104.68 124.052 104.797 124.287 105.032C124.522 105.267 124.639 105.565 124.639 105.928C124.639 106.269 124.522 106.568 124.287 106.824C124.052 107.059 123.754 107.176 123.391 107.176H119.775V116.84C119.775 117.672 119.967 118.205 120.351 118.44C120.756 118.653 121.258 118.76 121.855 118.76C122.282 118.76 122.708 118.696 123.135 118.568C123.22 118.547 123.306 118.525 123.391 118.504C123.498 118.483 123.626 118.472 123.775 118.472C124.074 118.472 124.34 118.589 124.575 118.824C124.81 119.037 124.927 119.304 124.927 119.624C124.927 120.115 124.682 120.488 124.191 120.744C123.359 121.128 122.474 121.32 121.535 121.32ZM135.199 121.32C132.596 121.32 130.559 120.584 129.087 119.112C127.636 117.619 126.911 115.528 126.911 112.84C126.911 111.325 127.188 109.928 127.743 108.648C128.298 107.368 129.151 106.333 130.303 105.544C131.455 104.755 132.874 104.36 134.559 104.36C136.138 104.36 137.503 104.733 138.655 105.48C139.807 106.205 140.682 107.187 141.279 108.424C141.876 109.64 142.175 110.973 142.175 112.424C142.175 112.829 142.036 113.171 141.759 113.448C141.503 113.725 141.151 113.864 140.703 113.864H129.855C130.026 115.357 130.58 116.52 131.519 117.352C132.458 118.184 133.77 118.6 135.455 118.6C136.351 118.6 137.13 118.515 137.791 118.344C138.474 118.173 139.135 117.928 139.775 117.608C139.946 117.523 140.138 117.48 140.351 117.48C140.692 117.48 140.991 117.597 141.247 117.832C141.503 118.067 141.631 118.365 141.631 118.728C141.631 119.197 141.354 119.592 140.799 119.912C139.967 120.381 139.146 120.733 138.335 120.968C137.524 121.203 136.479 121.32 135.199 121.32ZM139.295 111.496C139.231 110.451 138.954 109.576 138.463 108.872C137.994 108.168 137.407 107.656 136.703 107.336C135.999 106.995 135.284 106.824 134.559 106.824C133.834 106.824 133.119 106.995 132.415 107.336C131.711 107.656 131.124 108.168 130.655 108.872C130.186 109.576 129.919 110.451 129.855 111.496H139.295Z" fill="white"/>
</svg>
